<svg width="20" height="20" viewBox="0 0 20 20" fill="none" xmlns="http://www.w3.org/2000/svg">
<path d="M17.5 10V15.8333C17.5 16.2754 17.3244 16.6993 17.0118 17.0118C16.6993 17.3244 16.2754 17.5 15.8333 17.5H4.16667C3.72464 17.5 3.30072 17.3244 2.98816 17.0118C2.67559 16.6993 2.5 16.2754 2.5 15.8333V4.16667C2.5 3.72464 2.67559 3.30072 2.98816 2.98816C3.30072 2.67559 3.72464 2.5 4.16667 2.5H10" stroke="white" stroke-width="1.4" stroke-linecap="round" stroke-linejoin="round"/>
<path d="M13.333 4.16699H18.333" stroke="white" stroke-width="1.4" stroke-linecap="round" stroke-linejoin="round"/>
<path d="M15.833 1.66699V6.66699" stroke="white" stroke-width="1.4" stroke-linecap="round" stroke-linejoin="round"/>
<path d="M7.49967 9.16634C8.42015 9.16634 9.16634 8.42015 9.16634 7.49967C9.16634 6.5792 8.42015 5.83301 7.49967 5.83301C6.5792 5.83301 5.83301 6.5792 5.83301 7.49967C5.83301 8.42015 6.5792 9.16634 7.49967 9.16634Z" stroke="white" stroke-width="1.4" stroke-linecap="round" stroke-linejoin="round"/>
<path d="M17.5 12.5001L14.9283 9.92841C14.6158 9.61595 14.1919 9.44043 13.75 9.44043C13.3081 9.44043 12.8842 9.61595 12.5717 9.92841L5 17.5001" stroke="white" stroke-width="1.4" stroke-linecap="round" stroke-linejoin="round"/>
</svg>
