<svg width="33" height="33" viewBox="0 0 33 33" fill="none" xmlns="http://www.w3.org/2000/svg">
<g clip-path="url(#clip0_467_2488)">
<path d="M17.9061 1.67958C17.6361 1.91958 15.5361 6.08709 15.5361 6.08709L13.9736 12.3896L20.0536 11.8321C20.0536 11.8321 25.1111 2.42708 25.2136 2.20958C25.3961 1.81458 25.4936 1.65208 24.7961 1.65208C24.0986 1.64958 18.1586 1.45458 17.9061 1.67958Z" fill="#176CC7"/>
<path d="M21.0535 11.4418C20.751 11.2793 11.841 11.1393 11.631 11.4418C11.441 11.7168 11.5485 13.1593 11.621 13.3318C11.751 13.6318 14.6285 14.9393 14.6285 14.9393L14.5735 15.5343C14.5735 15.5343 14.8085 15.5943 16.481 15.5943C18.1535 15.5943 18.4835 15.5093 18.4835 15.5093L18.4885 14.9718C18.4885 14.9718 21.0785 13.7118 21.2085 13.5368C21.3185 13.3918 21.356 11.6043 21.0535 11.4418ZM18.401 13.7218C18.401 13.7218 18.4835 13.3543 18.311 13.2693C18.1385 13.1818 15.1785 13.2218 14.9435 13.2343C14.7085 13.2468 14.7085 13.6668 14.7085 13.6668L12.8435 12.7068L12.8085 12.3493L19.8835 12.3993L19.8585 12.7368L18.401 13.7218Z" fill="#F79429"/>
<path d="M15.4491 13.5918C15.2141 13.5918 15.0791 13.8368 15.0791 14.2593C15.0791 14.6543 15.2141 14.9868 15.5116 14.9618C15.7566 14.9418 15.8416 14.5668 15.8191 14.2343C15.7966 13.8368 15.7466 13.5918 15.4491 13.5918Z" fill="#FDFFFF"/>
<path d="M7.96094 23.6415C7.96094 29.6315 13.3884 32.124 16.9909 32.0165C21.1884 31.8915 25.7034 28.7065 25.3309 22.9915C24.9809 17.629 20.4659 15.169 16.5209 15.1965C11.9359 15.2315 7.96094 18.409 7.96094 23.6415Z" fill="#F79429"/>
<path d="M16.8015 31.1119C16.739 31.1119 16.674 31.1119 16.6115 31.1094C14.7365 31.0469 12.884 30.2569 11.529 28.9444C10.079 27.5394 9.28404 25.6394 9.29404 23.5969C9.31654 18.6094 13.6765 16.2969 16.634 16.2969H16.659C20.6665 16.3144 23.9565 19.4294 24.049 23.6519C24.089 25.5319 23.489 27.4019 21.979 28.8869C20.569 30.2669 18.529 31.1119 16.8015 31.1119ZM16.629 17.1269C13.9765 17.1269 10.054 19.2969 10.044 23.5969C10.0365 26.8119 12.5265 30.1169 16.674 30.2569C18.254 30.3069 20.0365 29.7219 21.349 28.4319C22.714 27.0894 23.3265 25.3394 23.299 23.6644C23.239 20.0319 20.269 17.1419 16.664 17.1269C16.6565 17.1219 16.6365 17.1269 16.629 17.1269Z" fill="#D25116"/>
<path d="M15.1562 15.987C14.9837 15.7495 13.2162 15.817 11.3137 17.4545C9.42375 19.082 9.14125 20.882 9.48125 20.977C9.86875 21.0845 10.3412 19.3445 11.9737 17.882C13.4737 16.5445 15.4987 16.4595 15.1562 15.987ZM22.7537 22.5295C22.1512 22.6145 22.7762 24.4195 21.3787 26.4395C20.1662 28.192 18.7912 28.827 18.9512 29.212C19.1662 29.727 21.3687 28.4445 22.3887 26.3545C23.3112 24.462 23.2012 22.4645 22.7537 22.5295Z" fill="#FEFFFA"/>
<path d="M7.01085 1.54924C6.85335 1.69424 12.8758 12.4192 12.8758 12.4192C12.8758 12.4192 13.8858 12.5492 16.1408 12.5692C18.3958 12.5892 19.5133 12.4392 19.5133 12.4392C19.5133 12.4392 14.8308 1.65674 14.5508 1.54924C14.4133 1.49424 12.5583 1.47424 10.7458 1.45424C8.93085 1.43174 7.16085 1.40924 7.01085 1.54924Z" fill="#2E9DF4"/>
<path d="M19.3714 21.5465C19.0814 19.034 16.1564 18.824 14.9439 19.789C13.7639 20.729 13.8764 22.039 14.7039 22.1915C15.3564 22.3115 15.5264 21.794 15.7164 21.5565C16.1464 21.024 16.8314 20.974 17.2789 21.4015C17.7864 21.889 17.4739 23.054 16.7114 23.1015C16.1439 23.1365 15.8564 23.1065 15.7839 23.204C15.6814 23.3415 15.6964 24.424 15.8014 24.544C15.9214 24.6815 16.4014 24.5965 16.8139 24.6115C17.3814 24.634 17.9839 25.474 17.5864 26.104C17.1739 26.7565 16.0764 26.464 15.6814 26.069C15.1589 25.5465 14.6364 25.8465 14.4614 26.0515C14.1864 26.3765 13.8939 27.1165 14.9089 27.8365C15.9214 28.5565 18.9939 28.694 19.6139 26.464C20.1539 24.5165 18.8939 23.7165 18.8939 23.7165C18.8939 23.7165 19.5364 22.979 19.3714 21.5465Z" fill="#D25116"/>
</g>
<defs>
<clipPath id="clip0_467_2488">
<rect width="32" height="32" fill="white" transform="translate(0.633789 0.619141)"/>
</clipPath>
</defs>
</svg>
