<svg width="65" height="65" viewBox="0 0 65 65" fill="none" xmlns="http://www.w3.org/2000/svg">
<path d="M58.5757 2.01H6.57568C5.39584 1.99799 4.25942 2.45452 3.41578 3.27941C2.57214 4.1043 2.09019 5.23018 2.07568 6.41V58.62C2.09281 59.7981 2.57591 60.9214 3.41927 61.7441C4.26262 62.5669 5.39755 63.022 6.57568 63.01H58.5757C59.7556 63.0194 60.8913 62.5613 61.7345 61.7359C62.5777 60.9105 63.0599 59.7848 63.0757 58.605V6.395C63.0546 5.21864 62.5701 4.09813 61.7275 3.27703C60.8849 2.45592 59.7522 2.00059 58.5757 2.01Z" fill="#0076B2"/>
<path d="M11.1057 24.875H20.1607V54.01H11.1057V24.875ZM15.6357 10.375C16.6743 10.375 17.6895 10.683 18.553 11.2601C19.4165 11.8372 20.0894 12.6575 20.4866 13.6171C20.8838 14.5767 20.9875 15.6325 20.7845 16.6511C20.5815 17.6696 20.081 18.6051 19.3463 19.3391C18.6116 20.0731 17.6756 20.5727 16.6569 20.7747C15.6382 20.9767 14.5824 20.8721 13.6232 20.4739C12.664 20.0758 11.8444 19.4021 11.2681 18.5381C10.6918 17.6741 10.3848 16.6586 10.3857 15.62C10.3871 14.2285 10.9408 12.8944 11.9252 11.9109C12.9096 10.9274 14.2442 10.375 15.6357 10.375ZM25.8407 24.875H34.5207V28.875H34.6407C35.8507 26.585 38.8007 24.17 43.2057 24.17C52.3757 24.15 54.0757 30.185 54.0757 38.01V54.01H45.0207V39.835C45.0207 36.46 44.9607 32.115 40.3157 32.115C35.6707 32.115 34.8807 35.795 34.8807 39.615V54.01H25.8407V24.875Z" fill="white"/>
</svg>
