<svg width="33" height="32" viewBox="0 0 33 32" fill="none" xmlns="http://www.w3.org/2000/svg">
<path d="M26.6432 11.0036C24.8818 9.63822 22.768 8.95558 20.5369 8.8418L20.1845 9.18315C22.1808 9.63822 23.9424 10.5484 25.5864 11.8C23.5901 10.776 21.3588 10.0934 19.0102 9.86582C18.3056 9.75197 17.7185 9.75197 17.0139 9.75197C16.3093 9.75197 15.7221 9.75197 15.0176 9.86582C12.6689 10.0934 10.4377 10.776 8.44139 11.8C10.0854 10.5484 11.8469 9.63822 13.8432 9.18315L13.4909 8.8418C11.2597 8.95558 9.14595 9.63822 7.38451 11.0036C5.38818 14.6445 4.3313 18.7405 4.21387 22.9501C5.97531 24.7706 8.44139 25.9085 11.0249 25.9085C11.0249 25.9085 11.8469 24.9982 12.434 24.2017C10.9075 23.8605 9.49827 23.064 8.55883 21.8125C9.38083 22.2676 10.2028 22.7226 11.0249 23.064C12.0818 23.5192 13.1387 23.7466 14.1955 23.9742C15.135 24.088 16.0744 24.2017 17.0139 24.2017C17.9533 24.2017 18.8928 24.088 19.8322 23.9742C20.8891 23.7466 21.9459 23.5192 23.0028 23.064C23.8249 22.7226 24.6469 22.2676 25.4689 21.8125C24.5295 23.064 23.1202 23.8605 21.5937 24.2017C22.1808 24.9982 23.0028 25.9085 23.0028 25.9085C25.5864 25.9085 28.0524 24.7706 29.8139 22.9501C29.6964 18.7405 28.6396 14.6445 26.6432 11.0036ZM13.1387 20.9022C11.9644 20.9022 10.9075 19.8782 10.9075 18.6267C10.9075 17.3752 11.9644 16.3512 13.1387 16.3512C14.313 16.3512 15.3698 17.3752 15.3698 18.6267C15.3698 19.8782 14.313 20.9022 13.1387 20.9022ZM20.8891 20.9022C19.7148 20.9022 18.6579 19.8782 18.6579 18.6267C18.6579 17.3752 19.7148 16.3512 20.8891 16.3512C22.0634 16.3512 23.1202 17.3752 23.1202 18.6267C23.1202 19.8782 22.0634 20.9022 20.8891 20.9022Z" fill="#0E0E0E"/>
</svg>
