<svg width="44" height="45" viewBox="0 0 44 45" fill="none" xmlns="http://www.w3.org/2000/svg">
<rect y="0.779785" width="44" height="44" rx="22" fill="#3E3E3E"/>
<g clip-path="url(#clip0_135_2813)">
<g clip-path="url(#clip1_135_2813)">
<g clip-path="url(#clip2_135_2813)">
<path d="M31.0275 16.7596C29.3762 15.4796 27.3945 14.8396 25.3028 14.7329L24.9725 15.0529C26.844 15.4796 28.4954 16.3329 30.0367 17.5062C28.1651 16.5462 26.0734 15.9063 23.8715 15.6929C23.211 15.5862 22.6605 15.5862 22 15.5862C21.3395 15.5862 20.789 15.5862 20.1285 15.6929C17.9266 15.9063 15.8348 16.5462 13.9633 17.5062C15.5045 16.3329 17.156 15.4796 19.0275 15.0529L18.6972 14.7329C16.6055 14.8396 14.6238 15.4796 12.9725 16.7596C11.1009 20.1729 10.1101 24.0129 10 27.9595C11.6514 29.6663 13.9633 30.7329 16.3854 30.7329C16.3854 30.7329 17.156 29.8796 17.7064 29.1329C16.2752 28.8129 14.9541 28.0662 14.0734 26.8929C14.844 27.3196 15.6147 27.7463 16.3854 28.0662C17.3762 28.4929 18.367 28.7063 19.3578 28.9196C20.2386 29.0262 21.1193 29.1329 22 29.1329C22.8807 29.1329 23.7614 29.0262 24.6422 28.9196C25.633 28.7063 26.6238 28.4929 27.6147 28.0662C28.3854 27.7463 29.156 27.3196 29.9266 26.8929C29.0459 28.0662 27.7248 28.8129 26.2936 29.1329C26.844 29.8796 27.6147 30.7329 27.6147 30.7329C30.0367 30.7329 32.3486 29.6663 34 27.9595C33.8899 24.0129 32.8991 20.1729 31.0275 16.7596ZM18.367 26.0395C17.2661 26.0395 16.2752 25.0795 16.2752 23.9063C16.2752 22.7329 17.2661 21.7729 18.367 21.7729C19.4679 21.7729 20.4587 22.7329 20.4587 23.9063C20.4587 25.0795 19.4679 26.0395 18.367 26.0395ZM25.633 26.0395C24.5321 26.0395 23.5413 25.0795 23.5413 23.9063C23.5413 22.7329 24.5321 21.7729 25.633 21.7729C26.7339 21.7729 27.7248 22.7329 27.7248 23.9063C27.7248 25.0795 26.7339 26.0395 25.633 26.0395Z" fill="white"/>
</g>
</g>
</g>
<defs>
<clipPath id="clip0_135_2813">
<rect width="24" height="17" fill="white" transform="translate(10 14.2798)"/>
</clipPath>
<clipPath id="clip1_135_2813">
<rect width="24" height="17" fill="white" transform="translate(10 14.2798)"/>
</clipPath>
<clipPath id="clip2_135_2813">
<rect width="24" height="17" fill="white" transform="translate(10 14.2798)"/>
</clipPath>
</defs>
</svg>
