<svg width="44" height="45" viewBox="0 0 44 45" fill="none" xmlns="http://www.w3.org/2000/svg">
<rect y="0.779785" width="44" height="44" rx="22" fill="#3E3E3E"/>
<g clip-path="url(#clip0_135_2808)">
<g clip-path="url(#clip1_135_2808)">
<g clip-path="url(#clip2_135_2808)">
<path fill-rule="evenodd" clip-rule="evenodd" d="M22.0988 13.0181C16.5942 13.0181 12.1294 17.4829 12.1294 22.9875C12.1294 27.3912 15.004 31.1221 18.9184 32.4676C19.4077 32.5288 19.5912 32.223 19.5912 31.9783C19.5912 31.7337 19.5912 31.1221 19.5912 30.2658C16.8389 30.8774 16.2273 28.9202 16.2273 28.9202C15.7991 27.7581 15.1263 27.4523 15.1263 27.4523C14.2089 26.8407 15.1875 26.8407 15.1875 26.8407C16.1661 26.9019 16.7166 27.8805 16.7166 27.8805C17.634 29.4095 19.0407 28.9814 19.5912 28.7367C19.6523 28.064 19.9581 27.6358 20.2028 27.3912C18.001 27.1465 15.6768 26.2903 15.6768 22.437C15.6768 21.3361 16.0438 20.4798 16.7166 19.7459C16.6554 19.5624 16.2884 18.5227 16.8389 17.1771C16.8389 17.1771 17.6951 16.9324 19.5912 18.2168C20.3863 17.9722 21.2425 17.911 22.0988 17.911C22.9551 17.911 23.8113 18.0334 24.6064 18.2168C26.5025 16.9324 27.3587 17.1771 27.3587 17.1771C27.9092 18.5227 27.5422 19.5624 27.4811 19.8071C28.0927 20.4798 28.5208 21.3973 28.5208 22.4982C28.5208 26.3514 26.1967 27.1465 23.9948 27.3912C24.3618 27.697 24.6676 28.3086 24.6676 29.226C24.6676 30.5716 24.6676 31.6114 24.6676 31.9783C24.6676 32.223 24.8511 32.5288 25.3404 32.4676C29.3159 31.1221 32.1294 27.3912 32.1294 22.9875C32.0682 17.4829 27.6034 13.0181 22.0988 13.0181Z" fill="white"/>
</g>
</g>
</g>
<defs>
<clipPath id="clip0_135_2808">
<rect width="21" height="20" fill="white" transform="translate(11.5 12.7798)"/>
</clipPath>
<clipPath id="clip1_135_2808">
<rect width="21" height="20" fill="white" transform="translate(11.5 12.7798)"/>
</clipPath>
<clipPath id="clip2_135_2808">
<rect width="21" height="20" fill="white" transform="translate(11.5 12.7798)"/>
</clipPath>
</defs>
</svg>
