<svg width="19" height="19" viewBox="0 0 19 19" fill="none" xmlns="http://www.w3.org/2000/svg">
<g clip-path="url(#clip0_439_2364)">
<path d="M9.99719 1.15222C9.84531 1.28722 8.66406 3.63144 8.66406 3.63144L7.78516 7.1766L11.2052 6.86301C11.2052 6.86301 14.05 1.57269 14.1077 1.45035C14.2103 1.22816 14.2652 1.13676 13.8728 1.13676C13.4805 1.13535 10.1392 1.02566 9.99719 1.15222Z" fill="#176CC7"/>
<path d="M11.7675 6.64416C11.5973 6.55276 6.58544 6.47401 6.46731 6.64416C6.36044 6.79885 6.37591 7.50619 6.42794 7.5976C6.47997 7.68901 8.16466 8.47229 8.16466 8.47229L8.16325 8.75776C8.16325 8.75776 8.25606 8.98135 9.19544 8.98135C10.1348 8.98135 10.2318 8.79151 10.2318 8.79151L10.2403 8.50322C10.2403 8.50322 11.7154 7.76635 11.7928 7.70166C11.8715 7.63557 11.9376 6.73557 11.7675 6.64416ZM10.2234 7.81557C10.2234 7.81557 10.2192 7.61869 10.1222 7.56947C10.0251 7.52026 8.46278 7.52869 8.3306 7.53572C8.19841 7.54276 8.19841 7.77901 8.19841 7.77901L7.12966 7.25869V7.15463L11.1093 7.18276L11.1164 7.30088L10.2234 7.81557Z" fill="#FCC417"/>
<path d="M8.61437 7.75195C8.48219 7.75195 8.40625 7.88977 8.40625 8.12742C8.40625 8.34961 8.48219 8.53664 8.64953 8.52258C8.78734 8.51133 8.83516 8.30039 8.8225 8.11336C8.80984 7.89117 8.78172 7.75195 8.61437 7.75195Z" fill="#FDFFFF"/>
<path d="M4.35645 13.3135C4.35645 16.6829 7.40238 18.1834 9.42738 18.1117C11.6605 18.0315 14.3352 16.2906 14.1735 13.0759C14.0202 10.0299 11.458 8.58573 9.23895 8.6012C6.65988 8.61948 4.35645 10.3703 4.35645 13.3135Z" fill="#FCC417"/>
<path d="M9.35583 17.5253C9.32068 17.5253 9.28411 17.5253 9.24896 17.5239C8.19427 17.4888 7.15224 17.0444 6.39005 16.3061C5.57443 15.5158 5.12724 14.4471 5.13286 13.2981C5.14552 10.4927 7.59802 9.19189 9.26161 9.19189H9.27568C11.5299 9.20174 13.3805 10.9539 13.4326 13.3291C13.4551 14.3866 13.0219 15.4961 12.1726 16.3314C11.3794 17.1091 10.3276 17.5253 9.35583 17.5253ZM9.2588 9.65877C7.76677 9.65877 5.56036 10.8794 5.55474 13.2981C5.55052 15.1066 6.95115 16.9656 9.28411 17.0444C10.1729 17.0725 11.0883 16.7322 11.828 16.0052C12.5958 15.25 13.0276 14.2769 13.0121 13.3347C12.9783 11.2914 11.3077 9.6658 9.2799 9.65736C9.27427 9.65736 9.26302 9.65877 9.2588 9.65877Z" fill="#FA912C"/>
<path d="M8.41177 9.0794C8.31474 8.9458 7.21505 8.97112 6.17583 9.98643C5.17317 10.9666 5.06489 11.8905 5.25755 11.9439C5.47552 12.0044 5.7413 11.0256 6.65958 10.203C7.50333 9.44924 8.60583 9.34518 8.41177 9.0794ZM12.6657 12.7174C12.3268 12.7652 12.6783 13.7805 11.8922 14.9167C11.2102 15.9025 10.4368 16.2597 10.5268 16.4763C10.6477 16.766 11.8866 16.0446 12.4604 14.8689C12.9807 13.8044 12.9188 12.6808 12.6657 12.7174Z" fill="#FEFFFA"/>
<path d="M8.13527 11.3871C8.06215 11.4953 8.12824 12.4446 8.17184 12.4867C8.25621 12.5711 8.89746 12.2688 8.89746 12.2688L8.87355 14.8071C8.87355 14.8071 8.40246 14.8014 8.35324 14.8197C8.25621 14.8563 8.26887 15.835 8.34059 15.8828C8.4123 15.9307 10.3346 15.956 10.4078 15.8589C10.4809 15.7619 10.4626 14.9055 10.4289 14.8661C10.3684 14.793 9.90855 14.8225 9.90855 14.8225C9.90855 14.8225 9.94793 11.0847 9.93527 10.9652C9.92262 10.8457 9.79043 10.7711 9.63293 10.8077C9.47543 10.8442 8.18168 11.3167 8.13527 11.3871Z" fill="#FA912C"/>
<path d="M3.86792 1.07946C3.77933 1.16102 7.16698 7.19383 7.16698 7.19383C7.16698 7.19383 7.73511 7.26696 9.00354 7.27821C10.272 7.28946 10.9006 7.20508 10.9006 7.20508C10.9006 7.20508 8.26667 1.13993 8.10917 1.07946C8.03182 1.04852 6.98839 1.03727 5.96886 1.02602C4.94792 1.01336 3.95229 1.00071 3.86792 1.07946Z" fill="#2E9DF4"/>
</g>
<defs>
<clipPath id="clip0_439_2364">
<rect width="18" height="18" fill="white" transform="translate(0.28125 0.556152)"/>
</clipPath>
</defs>
</svg>
