<svg width="44" height="45" viewBox="0 0 44 45" fill="none" xmlns="http://www.w3.org/2000/svg">
<rect y="0.779785" width="44" height="44" rx="22" fill="#3E3E3E"/>
<g clip-path="url(#clip0_135_2818)">
<g clip-path="url(#clip1_135_2818)">
<g clip-path="url(#clip2_135_2818)">
<path d="M31.25 24.8536V31.6563H27.2679V25.2684C27.2679 23.6922 26.6872 22.6137 25.2769 22.6137C24.1984 22.6137 23.5348 23.3603 23.2859 24.024C23.2029 24.2729 23.12 24.6047 23.12 25.0195V31.6563H19.1379C19.1379 31.6563 19.2208 20.8715 19.1379 19.7931H23.12V21.4523C23.6177 20.6227 24.6132 19.4612 26.6872 19.4612C29.259 19.4612 31.25 21.2034 31.25 24.8536ZM14.9899 14.0688C13.6625 14.0688 12.75 14.9814 12.75 16.1428C12.75 17.3043 13.5796 18.2168 14.9069 18.2168C16.3173 18.2168 17.1469 17.3043 17.1469 16.1428C17.2298 14.8984 16.4002 14.0688 14.9899 14.0688ZM12.9989 31.6563H16.9809V19.7931H12.9989V31.6563Z" fill="white"/>
</g>
</g>
</g>
<defs>
<clipPath id="clip0_135_2818">
<rect width="19" height="19" fill="white" transform="translate(12.5 13.2798)"/>
</clipPath>
<clipPath id="clip1_135_2818">
<rect width="19" height="19" fill="white" transform="translate(12.5 13.2798)"/>
</clipPath>
<clipPath id="clip2_135_2818">
<rect width="19" height="19" fill="white" transform="translate(12.5 13.2798)"/>
</clipPath>
</defs>
</svg>
