<svg width="92" height="65" viewBox="0 0 92 65" fill="none" xmlns="http://www.w3.org/2000/svg">
<g clip-path="url(#clip0_1111_2576)">
<path d="M89.0764 10.4922C88.5543 8.56283 87.5359 6.80386 86.1226 5.39047C84.7093 3.97707 82.9503 2.95858 81.021 2.43641C73.9575 0.51001 45.5294 0.51001 45.5294 0.51001C45.5294 0.51001 17.0999 0.568321 10.0364 2.49472C8.10701 3.01693 6.34805 4.03547 4.93472 5.44893C3.52139 6.86238 2.503 8.62143 1.98097 10.5509C-0.155567 23.1013 -0.984368 42.2252 2.03963 54.2736C2.56172 56.203 3.58013 57.9619 4.99346 59.3753C6.40679 60.7887 8.16572 61.8072 10.0951 62.3294C17.1586 64.2558 45.5874 64.2558 45.5874 64.2558C45.5874 64.2558 74.0158 64.2558 81.0789 62.3294C83.0084 61.8073 84.7674 60.7888 86.1808 59.3754C87.5942 57.962 88.6126 56.203 89.1347 54.2736C91.3883 41.7054 92.0827 22.5932 89.0764 10.4922Z" fill="#FF0000"/>
<path d="M36.481 46.0424L60.0642 32.3826L36.481 18.7229V46.0424Z" fill="white"/>
</g>
<defs>
<clipPath id="clip0_1111_2576">
<rect width="91.03" height="64" fill="white" transform="translate(0.0605469 0.51001)"/>
</clipPath>
</defs>
</svg>
