<svg width="65" height="65" viewBox="0 0 65 65" fill="none" xmlns="http://www.w3.org/2000/svg">
<g clip-path="url(#clip0_1111_2546)">
<path d="M64.5757 32.51C64.5757 14.837 50.2487 0.51001 32.5757 0.51001C14.9027 0.51001 0.575684 14.837 0.575684 32.51C0.575684 48.482 12.2777 61.7208 27.5757 64.1213V41.76H19.4507V32.51H27.5757V25.46C27.5757 17.44 32.3532 13.01 39.6627 13.01C43.1637 13.01 46.8257 13.635 46.8257 13.635V21.51H42.7907C38.8154 21.51 37.5757 23.9768 37.5757 26.5075V32.51H46.4507L45.0319 41.76H37.5757V64.1213C52.8737 61.7208 64.5757 48.4823 64.5757 32.51Z" fill="#1877F2"/>
<path d="M45.0319 41.76L46.4507 32.51H37.5757V26.5075C37.5757 23.9765 38.8154 21.51 42.7907 21.51H46.8257V13.635C46.8257 13.635 43.1637 13.01 39.6624 13.01C32.3532 13.01 27.5757 17.44 27.5757 25.46V32.51H19.4507V41.76H27.5757V64.1213C29.2297 64.3804 30.9015 64.5104 32.5757 64.51C34.2499 64.5104 35.9216 64.3804 37.5757 64.1213V41.76H45.0319Z" fill="white"/>
</g>
<defs>
<clipPath id="clip0_1111_2546">
<rect width="64" height="64" fill="white" transform="translate(0.575684 0.51001)"/>
</clipPath>
</defs>
</svg>
