<svg width="65" height="65" viewBox="0 0 65 65" fill="none" xmlns="http://www.w3.org/2000/svg">
<g clip-path="url(#clip0_1111_2574)">
<path d="M0.575684 32.5105C0.575684 45.614 8.45518 56.871 19.7304 61.8203C19.6404 59.5858 19.7144 56.9033 20.2874 54.472C20.9027 51.8743 24.4049 37.035 24.4049 37.035C24.4049 37.035 23.3827 34.9918 23.3827 31.972C23.3827 27.2298 26.1312 23.688 29.5542 23.688C32.4649 23.688 33.8712 25.8743 33.8712 28.4923C33.8712 31.4183 32.0049 35.795 31.0452 39.8488C30.2434 43.2433 32.7472 46.012 36.0959 46.012C42.1589 46.012 46.2424 38.2248 46.2424 28.9983C46.2424 21.9848 41.5187 16.7353 32.9269 16.7353C23.2199 16.7353 17.1727 23.9743 17.1727 32.0603C17.1727 34.8483 17.9947 36.8143 19.2822 38.3368C19.8742 39.036 19.9564 39.3173 19.7422 40.1203C19.5887 40.709 19.2362 42.1265 19.0902 42.6883C18.8772 43.4988 18.2204 43.7885 17.4879 43.4893C13.0169 41.664 10.9347 36.7678 10.9347 31.2638C10.9347 22.1735 18.6012 11.2735 33.8052 11.2735C46.0227 11.2735 54.0639 20.1145 54.0639 29.6048C54.0639 42.158 47.0849 51.5363 36.7974 51.5363C33.3427 51.5363 30.0929 49.6688 28.9797 47.5475C28.9797 47.5475 27.1219 54.9205 26.7284 56.3443C26.0499 58.8115 24.7219 61.2775 23.5077 63.1995C26.4521 64.0701 29.5065 64.512 32.5769 64.5118C50.2479 64.5118 64.5759 50.1845 64.5759 32.5105C64.5759 14.8373 50.2479 0.51001 32.5769 0.51001C14.9042 0.51001 0.575684 14.8373 0.575684 32.5105Z" fill="#CB1F27"/>
</g>
<defs>
<clipPath id="clip0_1111_2574">
<rect width="64" height="64" fill="white" transform="translate(0.575684 0.51001)"/>
</clipPath>
</defs>
</svg>
