<svg width="65" height="65" viewBox="0 0 65 65" fill="none" xmlns="http://www.w3.org/2000/svg">
<g clip-path="url(#clip0_1111_2559)">
<path d="M32.5757 64.51C50.2488 64.51 64.5757 50.1831 64.5757 32.51C64.5757 14.8369 50.2488 0.51001 32.5757 0.51001C14.9026 0.51001 0.575684 14.8369 0.575684 32.51C0.575684 50.1831 14.9026 64.51 32.5757 64.51Z" fill="#FF4500"/>
<path d="M53.8631 32.815C53.8631 30.221 51.7653 28.1607 49.2088 28.1607C48.0012 28.1591 46.8396 28.6238 45.9663 29.458C42.7618 27.1687 38.3743 25.6812 33.4913 25.4905L35.6273 15.4952L42.5706 16.9827C42.6473 18.7377 44.0966 20.1495 45.8901 20.1495C47.7211 20.1495 49.2088 18.662 49.2088 16.83C49.2088 14.999 47.7213 13.5112 45.8901 13.5112C44.5931 13.5112 43.4481 14.2742 42.9141 15.3807L35.1701 13.7402C34.9411 13.7017 34.7121 13.7402 34.5593 13.8547C34.3686 13.9692 34.2543 14.1597 34.2166 14.3887L31.8506 25.5282C26.8913 25.6812 22.4276 27.1687 19.1851 29.4962C18.3117 28.6621 17.15 28.1975 15.9423 28.1992C13.3481 28.1992 11.2881 30.297 11.2881 32.8535C11.2881 34.7607 12.4323 36.3627 14.0351 37.0882C13.9573 37.5547 13.919 38.0268 13.9206 38.4997C13.9206 45.6712 22.2756 51.5087 32.5758 51.5087C42.8763 51.5087 51.2313 45.7097 51.2313 38.4997C51.2314 38.0269 51.1931 37.5549 51.1168 37.0882C52.7188 36.3627 53.8631 34.7222 53.8631 32.815ZM21.8936 36.1337C21.8936 34.3027 23.3811 32.815 25.2131 32.815C27.0441 32.815 28.5318 34.3025 28.5318 36.1337C28.5318 37.965 27.0443 39.4532 25.2131 39.4532C23.3813 39.4907 21.8936 37.965 21.8936 36.1337ZM40.4728 44.9465C38.1838 47.2357 33.8346 47.3885 32.5758 47.3885C31.2788 47.3885 26.9298 47.1972 24.6783 44.9465C24.3356 44.6032 24.3356 44.069 24.6783 43.7257C25.0218 43.383 25.5558 43.383 25.8993 43.7257C27.3493 45.1757 30.4013 45.6712 32.5758 45.6712C34.7503 45.6712 37.8403 45.1755 39.2518 43.7257C39.5953 43.383 40.1293 43.383 40.4728 43.7257C40.7778 44.069 40.7778 44.6032 40.4728 44.9465ZM39.8621 39.491C38.0308 39.491 36.5433 38.0035 36.5433 36.1722C36.5433 34.341 38.0308 32.8535 39.8621 32.8535C41.6938 32.8535 43.1813 34.341 43.1813 36.1722C43.1813 37.9647 41.6938 39.491 39.8621 39.491Z" fill="white"/>
</g>
<defs>
<clipPath id="clip0_1111_2559">
<rect width="64" height="64" fill="white" transform="translate(0.575684 0.51001)"/>
</clipPath>
</defs>
</svg>
