<svg width="57" height="65" viewBox="0 0 57 65" fill="none" xmlns="http://www.w3.org/2000/svg">
<g clip-path="url(#clip0_1111_2551)">
<path d="M42.1964 23.5548C46.3185 26.4999 51.3683 28.2327 56.8222 28.2327V17.7433C55.7899 17.7437 54.7605 17.636 53.7506 17.422V25.6787C48.2972 25.6787 43.248 23.946 39.1251 21.0012V42.4072C39.1251 53.1157 30.4396 61.7959 19.7265 61.7959C15.7291 61.7959 12.0136 60.588 8.92725 58.5164C12.4499 62.1165 17.3624 64.3497 22.7971 64.3497C33.5112 64.3497 42.1969 55.6695 42.1969 44.9605V23.5548H42.1964ZM45.9857 12.9722C43.879 10.672 42.4957 7.69931 42.1964 4.4128V3.06372H39.2858C40.0184 7.24071 42.5178 10.8093 45.9857 12.9722ZM15.7033 50.2993C14.5262 48.757 13.89 46.87 13.893 44.9299C13.893 40.0323 17.8656 36.0612 22.7669 36.0612C23.6802 36.0607 24.5881 36.2009 25.4587 36.4768V25.7528C24.4413 25.6136 23.4146 25.5542 22.3884 25.5761V33.923C21.5174 33.647 20.6091 33.5069 19.6954 33.5076C14.7943 33.5076 10.8219 37.4783 10.8219 42.3765C10.8219 45.84 12.8074 48.8385 15.7033 50.2993Z" fill="#FF004F"/>
<path d="M39.1255 21.0009C43.2486 23.9458 48.2974 25.6785 53.751 25.6785V17.4218C50.7068 16.7736 48.012 15.1838 45.9859 12.9722C42.5177 10.809 40.0188 7.24049 39.2862 3.06372H31.6408V44.9601C31.6234 49.8444 27.6576 53.7992 22.7669 53.7992C19.8851 53.7992 17.3247 52.4263 15.7033 50.299C12.8078 48.8385 10.822 45.8398 10.822 42.3767C10.822 37.4789 14.7945 33.5079 19.6955 33.5079C20.6346 33.5079 21.5396 33.654 22.3886 33.9232V25.5763C11.8635 25.7937 3.39893 34.3891 3.39893 44.9603C3.39893 50.2375 5.50673 55.0213 8.92786 58.5168C12.0142 60.588 15.7295 61.7963 19.7271 61.7963C30.4405 61.7963 39.1257 53.1155 39.1257 42.4072L39.1255 21.0009Z" fill="black"/>
<path d="M53.7511 17.4215V15.1894C51.0059 15.1934 48.315 14.425 45.9859 12.9721C48.0476 15.2281 50.7624 16.7837 53.7511 17.4219M39.286 3.06339C39.2162 2.66429 39.1626 2.26252 39.1253 1.85909V0.51001H28.5689V42.4068C28.5521 47.2907 24.5863 51.2455 19.6954 51.2455C18.3088 51.2475 16.9412 50.9234 15.7031 50.2994C17.3245 52.4261 19.8849 53.7988 22.7667 53.7988C27.6572 53.7988 31.6234 49.8445 31.6406 44.9602V3.06361L39.286 3.06339ZM22.3891 25.5759V23.1993C21.507 23.0789 20.6177 23.0186 19.7274 23.0188C9.01288 23.0188 0.327637 31.6994 0.327637 42.4068C0.327637 49.12 3.74104 55.0362 8.92813 58.5163C5.507 55.021 3.3992 50.2369 3.3992 44.96C3.3992 34.389 11.8635 25.7933 22.3891 25.5759Z" fill="#00F2EA"/>
</g>
<defs>
<clipPath id="clip0_1111_2551">
<rect width="56.5" height="64" fill="white" transform="translate(0.325684 0.51001)"/>
</clipPath>
</defs>
</svg>
