<svg width="14" height="14" viewBox="0 0 14 14" fill="none" xmlns="http://www.w3.org/2000/svg">
<g clip-path="url(#clip0_141_9535)">
<path d="M9.91675 1.16675H4.08341C2.47258 1.16675 1.16675 2.47258 1.16675 4.08341V9.91675C1.16675 11.5276 2.47258 12.8334 4.08341 12.8334H9.91675C11.5276 12.8334 12.8334 11.5276 12.8334 9.91675V4.08341C12.8334 2.47258 11.5276 1.16675 9.91675 1.16675Z" stroke="white" stroke-width="1.16667" stroke-linecap="round" stroke-linejoin="round"/>
<path d="M10.2083 3.79175H10.2142M9.33333 6.63258C9.40532 7.11806 9.32239 7.61387 9.09635 8.04951C8.87031 8.48514 8.51266 8.83841 8.07427 9.05906C7.63589 9.27971 7.13909 9.35651 6.65453 9.27854C6.16998 9.20057 5.72235 8.9718 5.37531 8.62476C5.02828 8.27772 4.7995 7.83009 4.72153 7.34554C4.64356 6.86099 4.72036 6.36419 4.94102 5.9258C5.16167 5.48741 5.51493 5.12976 5.95057 4.90372C6.3862 4.67768 6.88202 4.59476 7.36749 4.66675C7.8627 4.74018 8.32115 4.97093 8.67515 5.32493C9.02914 5.67892 9.25989 6.13738 9.33333 6.63258Z" stroke="white" stroke-width="1.16667" stroke-linecap="round" stroke-linejoin="round"/>
</g>
<defs>
<clipPath id="clip0_141_9535">
<rect width="14" height="14" fill="white"/>
</clipPath>
</defs>
</svg>
