<svg width="14" height="14" viewBox="0 0 14 14" fill="none" xmlns="http://www.w3.org/2000/svg">
<path d="M1.45823 9.91659C1.05038 7.99353 1.05038 6.00632 1.45823 4.08326C1.51177 3.88796 1.61523 3.70997 1.75842 3.56678C1.90161 3.42359 2.0796 3.32014 2.2749 3.26659C5.40361 2.7487 8.59618 2.7487 11.7249 3.26659C11.9202 3.32014 12.0982 3.42359 12.2414 3.56678C12.3846 3.70997 12.488 3.88796 12.5416 4.08326C12.9494 6.00632 12.9494 7.99353 12.5416 9.91659C12.488 10.1119 12.3846 10.2899 12.2414 10.4331C12.0982 10.5763 11.9202 10.6797 11.7249 10.7333C8.59618 11.2512 5.40361 11.2512 2.2749 10.7333C2.0796 10.6797 1.90161 10.5763 1.75842 10.4331C1.61523 10.2899 1.51177 10.1119 1.45823 9.91659Z" stroke="white" stroke-width="1.16667" stroke-linecap="round" stroke-linejoin="round"/>
<path d="M5.83325 8.75L8.74992 7L5.83325 5.25V8.75Z" stroke="white" stroke-width="1.16667" stroke-linecap="round" stroke-linejoin="round"/>
</svg>
