<svg width="33" height="33" viewBox="0 0 33 33" fill="none" xmlns="http://www.w3.org/2000/svg">
<path d="M17.6649 1.78945C17.3949 2.02945 15.2949 6.19695 15.2949 6.19695L13.7324 12.4994L19.8124 11.9419C19.8124 11.9419 24.8699 2.53695 24.9724 2.31945C25.1549 1.92445 25.2524 1.76195 24.5549 1.76195C23.8574 1.75945 17.9174 1.56445 17.6649 1.78945Z" fill="#176CC7"/>
<path d="M20.8121 11.5522C20.5096 11.3897 11.5996 11.2497 11.3896 11.5522C11.1996 11.8272 11.2271 13.0847 11.3196 13.2472C11.4121 13.4097 14.4071 14.8022 14.4071 14.8022L14.4046 15.3097C14.4046 15.3097 14.5696 15.7072 16.2396 15.7072C17.9096 15.7072 18.0821 15.3697 18.0821 15.3697L18.0971 14.8572C18.0971 14.8572 20.7196 13.5472 20.8571 13.4322C20.9971 13.3147 21.1146 11.7147 20.8121 11.5522ZM18.0671 13.6347C18.0671 13.6347 18.0596 13.2847 17.8871 13.1972C17.7146 13.1097 14.9371 13.1247 14.7021 13.1372C14.4671 13.1497 14.4671 13.5697 14.4671 13.5697L12.5671 12.6447V12.4597L19.6421 12.5097L19.6546 12.7197L18.0671 13.6347Z" fill="#FCC417"/>
<path d="M15.2079 13.522C14.9729 13.522 14.8379 13.767 14.8379 14.1895C14.8379 14.5845 14.9729 14.917 15.2704 14.892C15.5154 14.872 15.6004 14.497 15.5779 14.1645C15.5554 13.7695 15.5054 13.522 15.2079 13.522Z" fill="#FDFFFF"/>
<path d="M7.6377 23.4095C7.6377 29.3995 13.0527 32.067 16.6527 31.9395C20.6227 31.797 25.3777 28.702 25.0902 22.987C24.8177 17.572 20.2627 15.0045 16.3177 15.032C11.7327 15.0645 7.6377 18.177 7.6377 23.4095Z" fill="#FCC417"/>
<path d="M16.5252 30.897C16.4627 30.897 16.3977 30.897 16.3352 30.8945C14.4602 30.832 12.6077 30.042 11.2527 28.7295C9.80267 27.3245 9.00767 25.4245 9.01767 23.382C9.04017 18.3945 13.4002 16.082 16.3577 16.082H16.3827C20.3902 16.0995 23.6802 19.2145 23.7727 23.437C23.8127 25.317 23.0427 27.2895 21.5327 28.7745C20.1227 30.157 18.2527 30.897 16.5252 30.897ZM16.3527 16.912C13.7002 16.912 9.77767 19.082 9.76767 23.382C9.76017 26.597 12.2502 29.902 16.3977 30.042C17.9777 30.092 19.6052 29.487 20.9202 28.1945C22.2852 26.852 23.0527 25.122 23.0252 23.447C22.9652 19.8145 19.9952 16.9245 16.3902 16.9095C16.3802 16.9095 16.3602 16.912 16.3527 16.912Z" fill="#FA912C"/>
<path d="M14.8473 15.8819C14.6748 15.6444 12.7198 15.6894 10.8723 17.4944C9.08976 19.2369 8.89726 20.8794 9.23976 20.9744C9.62726 21.0819 10.0998 19.3419 11.7323 17.8794C13.2323 16.5394 15.1923 16.3544 14.8473 15.8819ZM22.4098 22.3494C21.8073 22.4344 22.4323 24.2394 21.0348 26.2594C19.8223 28.0119 18.4473 28.6469 18.6073 29.0319C18.8223 29.5469 21.0248 28.2644 22.0448 26.1744C22.9698 24.2819 22.8598 22.2844 22.4098 22.3494Z" fill="#FEFFFA"/>
<path d="M14.3551 19.9846C14.2251 20.1771 14.3426 21.8646 14.4201 21.9396C14.5701 22.0896 15.7101 21.5521 15.7101 21.5521L15.6676 26.0646C15.6676 26.0646 14.8301 26.0546 14.7426 26.0871C14.5701 26.1521 14.5926 27.8921 14.7201 27.9771C14.8476 28.0621 18.2651 28.1071 18.3951 27.9346C18.5251 27.7621 18.4926 26.2396 18.4326 26.1696C18.3251 26.0396 17.5076 26.0921 17.5076 26.0921C17.5076 26.0921 17.5776 19.4471 17.5551 19.2346C17.5326 19.0221 17.2976 18.8896 17.0176 18.9546C16.7376 19.0196 14.4376 19.8596 14.3551 19.9846Z" fill="#FA912C"/>
<path d="M6.76964 1.6596C6.61214 1.8046 12.6346 12.5296 12.6346 12.5296C12.6346 12.5296 13.6446 12.6596 15.8996 12.6796C18.1546 12.6996 19.2721 12.5496 19.2721 12.5496C19.2721 12.5496 14.5896 1.7671 14.3096 1.6596C14.1721 1.6046 12.3171 1.5846 10.5046 1.5646C8.68964 1.5421 6.91964 1.5196 6.76964 1.6596Z" fill="#2E9DF4"/>
</svg>
