<svg width="20" height="20" viewBox="0 0 20 20" fill="none" xmlns="http://www.w3.org/2000/svg">
<path d="M10 1.6665C9.33696 1.6665 8.70107 1.9299 8.23223 2.39874C7.76339 2.86758 7.5 3.50346 7.5 4.1665V9.99984C7.5 10.6629 7.76339 11.2988 8.23223 11.7676C8.70107 12.2364 9.33696 12.4998 10 12.4998C10.663 12.4998 11.2989 12.2364 11.7678 11.7676C12.2366 11.2988 12.5 10.6629 12.5 9.99984V4.1665C12.5 3.50346 12.2366 2.86758 11.7678 2.39874C11.2989 1.9299 10.663 1.6665 10 1.6665Z" stroke="white" stroke-width="1.4" stroke-linecap="round" stroke-linejoin="round"/>
<path d="M15.8337 8.33301V9.99967C15.8337 11.5468 15.2191 13.0305 14.1251 14.1245C13.0312 15.2184 11.5474 15.833 10.0003 15.833C8.45323 15.833 6.9695 15.2184 5.87554 14.1245C4.78157 13.0305 4.16699 11.5468 4.16699 9.99967V8.33301" stroke="white" stroke-width="1.4" stroke-linecap="round" stroke-linejoin="round"/>
<path d="M10 15.8335V18.3335" stroke="white" stroke-width="1.4" stroke-linecap="round" stroke-linejoin="round"/>
</svg>
