<svg width="33" height="33" viewBox="0 0 33 33" fill="none" xmlns="http://www.w3.org/2000/svg">
<path d="M17.9061 1.63173C17.6361 1.87173 15.5361 6.03923 15.5361 6.03923L13.9736 12.3417L20.0536 11.7842C20.0536 11.7842 25.1111 2.37923 25.2136 2.16173C25.3961 1.76673 25.4936 1.60423 24.7961 1.60423C24.0986 1.60173 18.1586 1.40673 17.9061 1.63173Z" fill="#176CC7"/>
<path d="M21.0535 11.394C20.751 11.2315 11.841 11.0915 11.631 11.394C11.441 11.669 11.5485 13.1115 11.621 13.284C11.751 13.584 14.6285 14.8915 14.6285 14.8915L14.5735 15.4865C14.5735 15.4865 14.8085 15.5465 16.481 15.5465C18.1535 15.5465 18.4835 15.4615 18.4835 15.4615L18.4885 14.924C18.4885 14.924 21.0785 13.664 21.2085 13.489C21.3185 13.344 21.356 11.5565 21.0535 11.394ZM18.401 13.674C18.401 13.674 18.4835 13.3065 18.311 13.2215C18.1385 13.134 15.1785 13.174 14.9435 13.1865C14.7085 13.199 14.7085 13.619 14.7085 13.619L12.8085 12.4865V12.3015L19.8835 12.3515L19.896 12.5615L18.401 13.674Z" fill="#CECDD2"/>
<path d="M15.4491 13.3633C15.2141 13.3633 15.0791 13.6083 15.0791 14.0308C15.0791 14.4258 15.2141 14.7583 15.5116 14.7333C15.7566 14.7133 15.8416 14.3383 15.8191 14.0058C15.7966 13.6108 15.7466 13.3633 15.4491 13.3633Z" fill="#FDFFFF"/>
<path d="M7.87598 23.5437C7.87598 29.5337 13.3885 32.0762 16.991 31.9687C21.1885 31.8437 25.6185 28.6587 25.331 22.9437C25.0585 17.5287 20.466 15.1212 16.521 15.1487C11.936 15.1837 7.87598 18.3112 7.87598 23.5437Z" fill="#CECDD2"/>
<path d="M16.7664 30.8541C16.7039 30.8541 16.6389 30.8541 16.5764 30.8516C14.7014 30.7891 12.8489 29.9991 11.4939 28.6866C10.0439 27.2816 9.24888 25.3816 9.25888 23.3391C9.28138 18.3516 13.6414 16.0391 16.5989 16.0391H16.6239C20.6314 16.0566 23.9214 19.1716 24.0139 23.3941C24.0539 25.2741 23.2839 27.2466 21.7739 28.7316C20.3639 30.1141 18.4939 30.8541 16.7664 30.8541ZM16.5939 16.8691C13.9414 16.8691 10.0189 19.0391 10.0089 23.3391C10.0014 26.5541 12.4914 29.8591 16.6389 29.9991C18.2189 30.0491 19.8464 29.4441 21.1614 28.1516C22.5264 26.8091 23.2939 25.0791 23.2664 23.4041C23.2014 19.7716 20.2314 16.8816 16.6264 16.8641C16.6214 16.8641 16.6014 16.8691 16.5939 16.8691Z" fill="#9B9B9D"/>
<path d="M15.1562 15.9391C14.9837 15.7016 13.2162 15.7691 11.3137 17.4066C9.42375 19.0341 9.14125 20.8341 9.48125 20.9291C9.86875 21.0366 10.3412 19.2966 11.9737 17.8341C13.4737 16.4966 15.4987 16.4116 15.1562 15.9391ZM22.6037 22.5016C22.0012 22.5866 22.6262 24.3916 21.2287 26.4116C20.0162 28.1641 18.6412 28.7991 18.8012 29.1841C19.0162 29.6991 21.2187 28.4166 22.2387 26.3266C23.1612 24.4366 23.0512 22.4391 22.6037 22.5016Z" fill="#FEFFFA"/>
<path d="M7.01085 1.50139C6.85335 1.64639 12.8758 12.3714 12.8758 12.3714C12.8758 12.3714 13.8858 12.5014 16.1408 12.5214C18.3958 12.5414 19.5133 12.3914 19.5133 12.3914C19.5133 12.3914 14.8308 1.60889 14.5508 1.50139C14.4133 1.44639 12.5583 1.42639 10.7458 1.40639C8.93085 1.38389 7.16085 1.36139 7.01085 1.50139Z" fill="#2E9DF4"/>
<path d="M14.8463 22.1588C15.1063 22.1613 15.3388 21.8088 15.5538 21.5938C16.0113 21.1338 16.4913 20.7688 17.0388 21.2638C18.3838 22.4863 15.6838 23.7263 14.6588 25.4213C13.8938 26.6863 13.7388 27.6588 13.9513 27.9188C14.1638 28.1788 19.3363 28.1663 19.4063 28.0363C19.4763 27.9063 19.5488 26.1738 19.4288 26.0913C19.3088 26.0088 16.7663 26.0563 16.7663 26.0563C16.7663 26.0563 16.9788 25.5613 17.8513 24.8063C18.8088 23.9788 19.5763 22.8413 19.3713 21.4963C18.9463 18.7163 16.1463 18.6138 14.9338 19.5813C13.7513 20.5238 14.0063 22.1488 14.8463 22.1588Z" fill="#9B9B9D"/>
</svg>
