<svg width="65" height="65" viewBox="0 0 65 65" fill="none" xmlns="http://www.w3.org/2000/svg">
<g clip-path="url(#clip0_1111_2572)">
<path d="M33.0716 64.51H33.053C23.5036 64.446 16.1623 61.2967 11.229 55.1527C6.84231 49.6833 4.57564 42.0727 4.50098 32.5367V32.4913C4.58098 22.9473 6.84498 15.3447 11.2343 9.87268C16.1623 3.72334 23.509 0.57401 33.0556 0.51001H33.093C40.4156 0.563343 46.541 2.44334 51.2956 6.10468C55.7676 9.54468 58.917 14.4513 60.653 20.6833L55.213 22.2007C52.269 11.6407 44.8183 6.24334 33.069 6.16068C25.309 6.21934 19.4423 8.65668 15.629 13.406C12.061 17.854 10.2183 24.2807 10.1463 32.51C10.2183 40.7393 12.061 47.166 15.6316 51.614C19.445 56.3687 25.3143 58.8087 33.0716 58.8593C40.0663 58.806 44.693 57.1767 48.5383 53.406C52.9303 49.1047 52.853 43.8247 51.445 40.6113C50.6183 38.718 49.117 37.1447 47.0876 35.9447C46.5756 39.55 45.429 42.4673 43.6636 44.67C41.301 47.6087 37.957 49.214 33.717 49.4433C30.5116 49.6167 27.421 48.862 25.0263 47.3073C22.1916 45.47 20.533 42.6673 20.3543 39.4033C20.181 36.23 21.4423 33.31 23.901 31.1847C26.2476 29.158 29.5516 27.966 33.4556 27.742C36.1459 27.5772 38.8461 27.7041 41.509 28.1207C41.173 26.142 40.509 24.5687 39.509 23.4353C38.141 21.8727 36.021 21.0807 33.2183 21.062H33.141C30.8903 21.062 27.829 21.6807 25.885 24.582L21.1996 21.4353C23.813 17.558 28.0476 15.4193 33.141 15.4193H33.2583C41.7756 15.4727 46.8503 20.686 47.357 29.7873C47.6468 29.9118 47.9321 30.038 48.213 30.166C52.1863 32.0327 55.093 34.862 56.6236 38.3527C58.749 43.206 58.9463 51.126 52.4956 57.4407C47.5623 62.2673 41.5783 64.4487 33.0903 64.5073L33.0716 64.51ZM35.7463 33.3367C35.1028 33.3367 34.4459 33.3553 33.7756 33.3927C28.8796 33.6673 25.829 35.9153 25.9996 39.1073C26.1783 42.4567 29.8716 44.0113 33.4236 43.8193C36.6876 43.646 40.9383 42.3713 41.653 33.926C39.7105 33.5208 37.7305 33.3233 35.7463 33.3367Z" fill="white"/>
</g>
<defs>
<clipPath id="clip0_1111_2572">
<rect width="64" height="64" fill="white" transform="translate(0.575684 0.51001)"/>
</clipPath>
</defs>
</svg>
