<svg width="65" height="65" viewBox="0 0 65 65" fill="none" xmlns="http://www.w3.org/2000/svg">
<g clip-path="url(#clip0_1111_2541)">
<path d="M49.5757 0.51001H15.5757C7.29141 0.51001 0.575684 7.22574 0.575684 15.51V49.51C0.575684 57.7943 7.29141 64.51 15.5757 64.51H49.5757C57.86 64.51 64.5757 57.7943 64.5757 49.51V15.51C64.5757 7.22574 57.86 0.51001 49.5757 0.51001Z" fill="url(#paint0_radial_1111_2541)"/>
<path d="M49.5757 0.51001H15.5757C7.29141 0.51001 0.575684 7.22574 0.575684 15.51V49.51C0.575684 57.7943 7.29141 64.51 15.5757 64.51H49.5757C57.86 64.51 64.5757 57.7943 64.5757 49.51V15.51C64.5757 7.22574 57.86 0.51001 49.5757 0.51001Z" fill="url(#paint1_radial_1111_2541)"/>
<path d="M32.5779 7.51001C25.7884 7.51001 24.9362 7.53976 22.2697 7.66101C19.6082 7.78301 17.7914 8.20426 16.2019 8.82251C14.5574 9.46101 13.1627 10.3153 11.7732 11.7053C10.3824 13.095 9.52818 14.4898 8.88768 16.1335C8.26768 17.7235 7.84593 19.541 7.72618 22.2013C7.60693 24.868 7.57568 25.7205 7.57568 32.5103C7.57568 39.3 7.60568 40.1495 7.72668 42.816C7.84918 45.4775 8.27043 47.2943 8.88818 48.8838C9.52718 50.5283 10.3814 51.923 11.7714 53.3125C13.1607 54.7033 14.5554 55.5595 16.1987 56.198C17.7894 56.8163 19.6064 57.2375 22.2674 57.3595C24.9342 57.4808 25.7857 57.5105 32.5749 57.5105C39.3652 57.5105 40.2147 57.4808 42.8812 57.3595C45.5427 57.2375 47.3614 56.8163 48.9522 56.198C50.5959 55.5595 51.9887 54.7033 53.3777 53.3125C54.7684 51.923 55.6224 50.5283 56.2632 48.8845C56.8777 47.2943 57.2997 45.477 57.4247 42.8165C57.5444 40.15 57.5757 39.3 57.5757 32.5103C57.5757 25.7205 57.5444 24.8685 57.4247 22.2018C57.2997 19.5403 56.8777 17.7238 56.2632 16.1343C55.6224 14.4898 54.7684 13.095 53.3777 11.7053C51.9872 10.3148 50.5964 9.46051 48.9507 8.82276C47.3569 8.20426 45.5392 7.78276 42.8777 7.66101C40.2109 7.53976 39.3619 7.51001 32.5702 7.51001H32.5779ZM30.3352 12.0153C31.0009 12.0143 31.7437 12.0153 32.5779 12.0153C39.2532 12.0153 40.0442 12.0393 42.6802 12.159C45.1177 12.2705 46.4407 12.6778 47.3219 13.02C48.4887 13.473 49.3204 14.0148 50.1949 14.89C51.0699 15.765 51.6114 16.5983 52.0657 17.765C52.4079 18.645 52.8157 19.968 52.9267 22.4055C53.0464 25.041 53.0724 25.8325 53.0724 32.5045C53.0724 39.1765 53.0464 39.9683 52.9267 42.6035C52.8152 45.041 52.4079 46.364 52.0657 47.2443C51.6127 48.411 51.0699 49.2418 50.1949 50.1163C49.3199 50.9913 48.4892 51.5328 47.3219 51.986C46.4417 52.3298 45.1177 52.736 42.6802 52.8475C40.0447 52.9673 39.2532 52.9933 32.5779 52.9933C25.9024 52.9933 25.1112 52.9673 22.4759 52.8475C20.0384 52.735 18.7154 52.3278 17.8334 51.9855C16.6669 51.5323 15.8334 50.9908 14.9584 50.1158C14.0834 49.2408 13.5419 48.4095 13.0877 47.2423C12.7454 46.362 12.3377 45.039 12.2267 42.6015C12.1069 39.966 12.0829 39.1745 12.0829 32.4983C12.0829 25.822 12.1069 25.0348 12.2267 22.3993C12.3382 19.9618 12.7454 18.6388 13.0877 17.7575C13.5409 16.5908 14.0834 15.7575 14.9587 14.8825C15.8339 14.0075 16.6669 13.4658 17.8337 13.0118C18.7149 12.668 20.0384 12.2618 22.4759 12.1498C24.7822 12.0455 25.6759 12.0143 30.3352 12.009V12.0153ZM45.9229 16.1663C44.2667 16.1663 42.9229 17.5088 42.9229 19.1653C42.9229 20.8215 44.2667 22.1653 45.9229 22.1653C47.5792 22.1653 48.9229 20.8215 48.9229 19.1653C48.9229 17.509 47.5792 16.1653 45.9229 16.1653V16.1663ZM32.5779 19.6715C25.4879 19.6715 19.7394 25.42 19.7394 32.5103C19.7394 39.6005 25.4879 45.3463 32.5779 45.3463C39.6682 45.3463 45.4147 39.6005 45.4147 32.5103C45.4147 25.4203 39.6677 19.6715 32.5774 19.6715H32.5779ZM32.5779 24.1768C37.1802 24.1768 40.9114 27.9075 40.9114 32.5103C40.9114 37.1125 37.1802 40.8438 32.5779 40.8438C27.9757 40.8438 24.2447 37.1125 24.2447 32.5103C24.2447 27.9075 27.9754 24.1768 32.5779 24.1768Z" fill="white"/>
</g>
<defs>
<radialGradient id="paint0_radial_1111_2541" cx="0" cy="0" r="1" gradientUnits="userSpaceOnUse" gradientTransform="translate(17.5757 69.4393) rotate(-90) scale(63.4288 58.9938)">
<stop stop-color="#FFDD55"/>
<stop offset="0.1" stop-color="#FFDD55"/>
<stop offset="0.5" stop-color="#FF543E"/>
<stop offset="1" stop-color="#C837AB"/>
</radialGradient>
<radialGradient id="paint1_radial_1111_2541" cx="0" cy="0" r="1" gradientUnits="userSpaceOnUse" gradientTransform="translate(-10.1446 5.12026) rotate(78.681) scale(28.353 116.872)">
<stop stop-color="#3771C8"/>
<stop offset="0.128" stop-color="#3771C8"/>
<stop offset="1" stop-color="#6600FF" stop-opacity="0"/>
</radialGradient>
<clipPath id="clip0_1111_2541">
<rect width="64" height="64" fill="white" transform="translate(0.575684 0.51001)"/>
</clipPath>
</defs>
</svg>
