<svg width="14" height="14" viewBox="0 0 14 14" fill="none" xmlns="http://www.w3.org/2000/svg">
<path d="M9.68342 3.395C9.28476 2.93972 9.06503 2.35515 9.06509 1.75H7.26259V8.98333C7.24898 9.37486 7.08381 9.74579 6.80194 10.0179C6.52006 10.29 6.14352 10.4419 5.75176 10.4417C4.92342 10.4417 4.23509 9.765 4.23509 8.925C4.23509 7.92167 5.20342 7.16917 6.20092 7.47833V5.635C4.18842 5.36667 2.42676 6.93 2.42676 8.925C2.42676 10.8675 4.03676 12.25 5.74592 12.25C7.57759 12.25 9.06509 10.7625 9.06509 8.925V5.25583C9.79601 5.78075 10.6736 6.06238 11.5734 6.06083V4.25833C11.5734 4.25833 10.4768 4.31083 9.68342 3.395Z" fill="white"/>
</svg>
