<svg width="304" height="200" viewBox="0 0 304 200" fill="none" xmlns="http://www.w3.org/2000/svg">
<path d="M-87 12.6208C-87 12.6208 -34.4722 -3.69214 -1.18521 4.11626C43.0379 14.4901 42.4583 80.2127 25.6825 104.619C8.90662 129.025 -19.0119 118.303 -34.7828 107.49C-50.5538 96.6762 -52.554 70.5008 -34.1668 51.1813C-15.7794 31.8618 47.7367 9.81916 101.526 41.7378C155.316 73.6564 166.412 115.853 128.074 134.693C114.034 141.593 100.535 141.957 87.885 139.726C75.2352 137.496 55.8221 120.7 69.6434 100.02C83.4648 79.3407 150.547 66.3375 187.168 92.5573C219.967 116.041 239.402 158.54 222.391 183.993C205.379 209.447 179.855 194.301 174.371 191.047C168.887 187.792 155.24 176.915 164.777 156.473C174.316 136.03 224.789 82.1108 301.598 141.298" stroke="white" stroke-width="3" stroke-linecap="round"/>
</svg>
